<svg class="safe-logo-svg" width="225" height="224" viewBox="0 0 225 224" fill="none" xmlns="http://www.w3.org/2000/svg">

<path fill-rule="evenodd" clip-rule="evenodd" d="M216.051 123.559C204.001 159.58 182.322 185.075 158.72 190.981C133.663 197.251 105.778 186.376 72.744 157.454C68.478 153.719 64.61 150.663 64.149 150.663C62.144 150.663 60 154.575 60.006 158.225C60.017 166.314 61.725 169.446 71.745 179.749C77.01 185.163 81.005 189.903 80.623 190.284C79.651 191.255 71.519 188.113 65.132 184.3C58.716 180.469 48.818 170.936 44.069 164.012C35.958 152.187 17.638 142.844 7.09301 145.155C4.34501 145.757 4.07301 146.128 4.64701 148.497C5.79501 153.239 13.735 168.953 18.202 175.323C29.621 191.609 42.508 202.621 60.5 211.464C80.149 221.122 82.255 221.605 107.483 222.227C129.65 222.774 139.495 221.018 156.5 213.482C168.296 208.255 186.346 194.491 195.097 184.05C210.356 165.845 220.49 140.068 219.795 121.229C219.5 113.247 219.5 113.247 216.051 123.559Z" fill="#f00"/>
<path fill-rule="evenodd" clip-rule="evenodd" d="M216.229 123.448C204.692 158.666 182.569 185.035 159.535 191.022C151.239 193.178 137.047 193.01 127.785 190.646C113.662 187.043 95.104 176.53 79.093 163.064C62.518 149.125 64.188 150.184 61.951 152.203C59.352 154.55 59.393 161.703 62.038 167.52C63.135 169.933 67.85 175.799 72.516 180.556C80.103 188.293 82.419 191.571 80.296 191.571C79.909 191.571 75.521 189.586 70.546 187.158C60.173 182.099 51.712 175.019 45.994 166.618C40.914 159.154 34.236 153.458 25.411 149.062C19.557 146.145 17.164 145.512 11.668 145.429C8.008 145.374 4.78 145.56 4.496 145.845C3.716 146.623 6.513 153.93 11.065 163.005C25.727 192.234 55.762 214.915 87.944 221.059C98.311 223.039 122.849 222.963 132.757 220.921C163.207 214.646 189.174 195.909 205.837 168.19C214.386 153.97 220.289 134.036 219.792 121.069C219.5 113.461 219.5 113.461 216.229 123.448Z" fill="#00f"/>
<path fill-rule="evenodd" clip-rule="evenodd" d="M217.134 121.768C211.615 139.132 201.579 157.895 191.158 170.335C181.425 181.953 165.673 191.034 152.744 192.48C127.097 195.35 102.609 184.399 69.5 155.257C64.87 151.181 62.538 150.79 60.915 153.815C59.503 156.446 60.307 164.392 62.392 168.414C63.216 170.005 67.74 175.172 72.445 179.899C84.766 192.276 84.075 193.956 69.5 187.059C61.112 183.088 51.932 175.044 45.109 165.684C39.354 157.789 29.898 150.53 21.558 147.606C16.419 145.804 6.04799 144.961 4.76499 146.242C4.13299 146.871 7.85299 156.427 11.728 164.131C17.921 176.442 31.838 192.566 44 201.521C51.866 207.313 66.386 214.687 76.257 217.902C93.278 223.445 122.021 224.016 139.5 219.157C169.479 210.822 195.104 189.737 208.869 162.075C215.871 148.005 220.419 130.418 219.811 119.763C219.5 114.324 219.5 114.324 217.134 121.768Z" fill="#f00"/>
<path fill-rule="evenodd" clip-rule="evenodd" d="M217.597 121.49C215.035 129.819 207.229 147.161 202.67 154.654C185.837 182.317 164.258 195.403 139.21 193.138C129.473 192.258 120.498 189.394 108.89 183.467C94.137 175.932 89.061 172.396 72.218 157.92C68.213 154.477 64.33 151.661 63.589 151.661C61.45 151.661 59.683 157.145 60.471 161.338C61.616 167.423 63.772 170.641 73.118 180.212C82.671 189.994 83.854 192.191 79.051 191.232C68.784 189.184 53.377 178.022 45.6 166.999C40.335 159.537 31.385 152.028 24 148.877C18.32 146.454 6.49999 145.057 5.48899 146.691C4.66299 148.023 8.88699 158.426 13.786 167.126C27.847 192.099 53.827 212.031 81.418 219.014C90.215 221.241 93.28 221.504 110.378 221.501C127.435 221.499 130.473 221.239 138.513 219.09C166.941 211.491 191.168 192.735 206.279 166.627C209.211 161.561 214.631 148.434 215.345 144.668C215.604 143.3 216.318 140.89 216.932 139.31C218.055 136.421 220.419 116.825 219.728 116.135C219.524 115.932 218.565 118.341 217.597 121.49Z" fill="#f00"/>
</svg>

