<?xml version="1.0" encoding="utf-8" ?>
<svg baseProfile="full" height="447px" version="1.1" width="450px" xmlns="http://www.w3.org/2000/svg" xmlns:ev="http://www.w3.org/2001/xml-events" xmlns:xlink="http://www.w3.org/1999/xlink"><defs /><path d="M 439,230 L 439,232 L 438,233 L 438,236 L 437,237 L 437,239 L 436,240 L 436,244 L 435,245 L 435,247 L 434,248 L 434,250 L 433,251 L 433,253 L 432,254 L 432,256 L 431,257 L 431,258 L 430,259 L 430,261 L 429,262 L 429,264 L 428,265 L 428,267 L 427,268 L 427,269 L 426,270 L 426,271 L 425,272 L 425,273 L 424,274 L 424,275 L 423,276 L 423,277 L 422,278 L 422,280 L 421,281 L 421,282 L 420,283 L 420,284 L 419,285 L 419,286 L 418,287 L 418,288 L 417,289 L 417,290 L 416,291 L 416,292 L 415,293 L 415,294 L 414,295 L 414,297 L 412,299 L 412,300 L 411,301 L 411,302 L 410,303 L 410,304 L 408,306 L 408,307 L 407,308 L 407,309 L 406,310 L 406,311 L 404,313 L 404,314 L 402,316 L 402,317 L 400,319 L 400,320 L 399,321 L 399,322 L 396,325 L 396,326 L 393,329 L 393,330 L 390,333 L 390,334 L 387,337 L 387,338 L 383,342 L 383,343 L 373,353 L 372,353 L 366,359 L 365,359 L 358,366 L 357,366 L 354,369 L 353,369 L 351,371 L 350,371 L 349,372 L 348,372 L 347,373 L 346,373 L 345,374 L 344,374 L 343,375 L 342,375 L 340,377 L 339,377 L 338,378 L 337,378 L 336,379 L 334,379 L 333,380 L 332,380 L 331,381 L 329,381 L 328,382 L 327,382 L 326,383 L 324,383 L 323,384 L 321,384 L 320,385 L 318,385 L 317,386 L 310,386 L 309,387 L 298,387 L 297,388 L 285,388 L 284,387 L 273,387 L 272,386 L 265,386 L 264,385 L 260,385 L 259,384 L 256,384 L 255,383 L 253,383 L 252,382 L 250,382 L 249,381 L 247,381 L 246,380 L 244,380 L 243,379 L 241,379 L 240,378 L 239,378 L 238,377 L 237,377 L 236,376 L 234,376 L 233,375 L 232,375 L 231,374 L 230,374 L 229,373 L 228,373 L 227,372 L 225,372 L 224,371 L 223,371 L 221,369 L 220,369 L 219,368 L 217,368 L 216,367 L 215,367 L 213,365 L 212,365 L 211,364 L 210,364 L 209,363 L 208,363 L 206,361 L 205,361 L 204,360 L 203,360 L 202,359 L 201,359 L 199,357 L 198,357 L 197,356 L 196,356 L 194,354 L 193,354 L 191,352 L 190,352 L 189,351 L 188,351 L 185,348 L 184,348 L 182,346 L 181,346 L 179,344 L 178,344 L 174,340 L 173,340 L 169,336 L 168,336 L 165,333 L 164,333 L 160,329 L 159,329 L 153,323 L 152,323 L 146,317 L 145,317 L 135,307 L 134,307 L 131,304 L 126,304 L 124,306 L 124,307 L 123,308 L 123,309 L 122,310 L 122,311 L 121,312 L 121,326 L 122,327 L 122,330 L 123,331 L 123,333 L 124,334 L 124,336 L 125,337 L 125,338 L 127,340 L 127,341 L 128,342 L 128,343 L 131,346 L 131,347 L 141,357 L 141,358 L 142,358 L 162,378 L 162,379 L 163,380 L 163,384 L 162,385 L 161,385 L 160,384 L 159,384 L 158,383 L 156,383 L 155,382 L 153,382 L 152,381 L 151,381 L 150,380 L 148,380 L 147,379 L 145,379 L 144,378 L 143,378 L 141,376 L 139,376 L 138,375 L 137,375 L 136,374 L 135,374 L 134,373 L 133,373 L 131,371 L 130,371 L 128,369 L 127,369 L 125,367 L 124,367 L 120,363 L 119,363 L 115,359 L 114,359 L 110,355 L 109,355 L 100,346 L 100,345 L 97,342 L 97,341 L 95,339 L 95,338 L 92,335 L 92,334 L 90,332 L 90,331 L 88,329 L 88,328 L 84,324 L 84,323 L 77,316 L 76,316 L 73,313 L 72,313 L 69,310 L 68,310 L 65,307 L 64,307 L 62,305 L 61,305 L 59,303 L 58,303 L 57,302 L 56,302 L 55,301 L 54,301 L 53,300 L 52,300 L 51,299 L 50,299 L 49,298 L 48,298 L 47,297 L 46,297 L 45,296 L 43,296 L 42,295 L 40,295 L 39,294 L 36,294 L 35,293 L 30,293 L 29,292 L 17,292 L 16,293 L 11,293 L 9,295 L 9,296 L 10,297 L 10,299 L 11,300 L 11,301 L 12,302 L 12,303 L 13,304 L 13,306 L 14,307 L 14,308 L 15,309 L 15,311 L 16,312 L 16,313 L 17,314 L 17,315 L 18,316 L 18,317 L 19,318 L 19,320 L 20,321 L 20,322 L 21,323 L 21,324 L 22,325 L 22,326 L 23,327 L 23,328 L 24,329 L 24,330 L 25,331 L 25,332 L 26,333 L 26,334 L 27,335 L 27,336 L 29,338 L 29,339 L 30,340 L 30,341 L 31,342 L 31,343 L 33,345 L 33,346 L 35,348 L 35,349 L 37,351 L 37,352 L 40,355 L 40,356 L 42,358 L 42,359 L 46,363 L 46,364 L 50,368 L 50,369 L 56,375 L 56,376 L 71,391 L 72,391 L 78,397 L 79,397 L 83,401 L 84,401 L 86,403 L 87,403 L 90,406 L 91,406 L 94,409 L 95,409 L 97,411 L 98,411 L 100,413 L 101,413 L 102,414 L 103,414 L 104,415 L 105,415 L 107,417 L 108,417 L 109,418 L 110,418 L 111,419 L 112,419 L 113,420 L 114,420 L 115,421 L 116,421 L 117,422 L 118,422 L 119,423 L 120,423 L 122,425 L 124,425 L 125,426 L 126,426 L 127,427 L 128,427 L 129,428 L 130,428 L 131,429 L 132,429 L 133,430 L 135,430 L 136,431 L 137,431 L 138,432 L 139,432 L 140,433 L 141,433 L 142,434 L 144,434 L 145,435 L 146,435 L 147,436 L 150,436 L 151,437 L 153,437 L 154,438 L 156,438 L 157,439 L 160,439 L 161,440 L 163,440 L 164,441 L 168,441 L 169,442 L 174,442 L 175,443 L 180,443 L 181,444 L 185,444 L 186,445 L 255,445 L 256,444 L 261,444 L 262,443 L 266,443 L 267,442 L 270,442 L 271,441 L 274,441 L 275,440 L 278,440 L 279,439 L 282,439 L 283,438 L 286,438 L 287,437 L 289,437 L 290,436 L 292,436 L 293,435 L 295,435 L 296,434 L 297,434 L 298,433 L 300,433 L 301,432 L 302,432 L 303,431 L 304,431 L 305,430 L 306,430 L 307,429 L 309,429 L 310,428 L 311,428 L 312,427 L 314,427 L 315,426 L 316,426 L 317,425 L 318,425 L 319,424 L 320,424 L 321,423 L 322,423 L 324,421 L 326,421 L 328,419 L 329,419 L 331,417 L 332,417 L 333,416 L 334,416 L 336,414 L 337,414 L 338,413 L 339,413 L 341,411 L 342,411 L 344,409 L 345,409 L 348,406 L 349,406 L 351,404 L 352,404 L 355,401 L 356,401 L 359,398 L 360,398 L 366,392 L 367,392 L 387,372 L 387,371 L 392,366 L 392,365 L 395,362 L 395,361 L 399,357 L 399,356 L 400,355 L 400,354 L 402,352 L 402,351 L 404,349 L 404,348 L 406,346 L 406,345 L 408,343 L 408,342 L 410,340 L 410,339 L 411,338 L 411,337 L 413,335 L 413,334 L 414,333 L 414,332 L 415,331 L 415,330 L 416,329 L 416,328 L 417,327 L 417,326 L 419,324 L 419,323 L 420,322 L 420,320 L 421,319 L 421,318 L 422,317 L 422,316 L 423,315 L 423,314 L 424,313 L 424,311 L 425,310 L 425,309 L 426,308 L 426,307 L 427,306 L 427,304 L 428,303 L 428,301 L 429,300 L 429,298 L 430,297 L 430,295 L 431,294 L 431,292 L 432,291 L 432,288 L 433,287 L 433,285 L 434,284 L 434,282 L 435,281 L 435,277 L 436,276 L 436,272 L 437,271 L 437,268 L 438,267 L 438,262 L 439,261 L 439,252 L 440,251 L 440,230 Z" fill="black" /><path d="M 222,159 L 221,160 L 220,160 L 218,162 L 218,163 L 217,164 L 217,165 L 216,166 L 216,168 L 215,169 L 215,170 L 216,171 L 216,173 L 218,175 L 218,176 L 220,178 L 220,179 L 221,180 L 221,181 L 220,182 L 218,182 L 216,180 L 215,180 L 209,174 L 209,173 L 206,170 L 206,169 L 203,166 L 201,166 L 200,167 L 199,167 L 198,168 L 197,168 L 196,169 L 196,170 L 193,173 L 192,173 L 190,175 L 190,176 L 188,178 L 187,178 L 184,181 L 183,181 L 181,183 L 180,183 L 178,185 L 177,185 L 175,187 L 174,187 L 173,188 L 172,188 L 171,189 L 169,189 L 168,190 L 167,190 L 166,191 L 164,191 L 163,192 L 159,192 L 158,193 L 153,193 L 152,194 L 151,194 L 151,196 L 153,198 L 154,198 L 155,199 L 156,199 L 157,200 L 160,200 L 161,201 L 165,201 L 166,202 L 168,202 L 169,203 L 170,203 L 171,204 L 173,204 L 174,205 L 178,205 L 179,204 L 180,204 L 181,203 L 185,203 L 187,205 L 190,205 L 191,206 L 193,206 L 194,205 L 196,205 L 197,204 L 201,204 L 202,205 L 203,205 L 204,206 L 205,206 L 206,205 L 209,205 L 210,204 L 212,204 L 213,205 L 216,205 L 217,206 L 219,206 L 222,209 L 222,216 L 223,217 L 222,218 L 222,229 L 223,230 L 223,232 L 221,234 L 219,234 L 218,233 L 217,233 L 216,232 L 213,232 L 212,231 L 210,231 L 209,230 L 206,230 L 205,229 L 204,229 L 203,228 L 201,228 L 200,227 L 198,227 L 197,226 L 194,226 L 193,225 L 191,225 L 190,224 L 189,224 L 188,223 L 188,221 L 190,219 L 214,219 L 215,218 L 215,216 L 216,215 L 216,213 L 214,211 L 195,211 L 194,212 L 188,212 L 187,213 L 184,213 L 183,214 L 180,214 L 175,219 L 175,220 L 174,221 L 174,225 L 179,230 L 180,230 L 181,231 L 182,231 L 184,233 L 185,233 L 186,234 L 187,234 L 188,235 L 191,235 L 192,236 L 196,236 L 197,237 L 201,237 L 202,238 L 206,238 L 207,239 L 208,239 L 209,240 L 209,242 L 206,245 L 206,246 L 205,247 L 205,248 L 204,249 L 204,250 L 203,251 L 203,252 L 202,253 L 202,259 L 204,261 L 204,262 L 211,269 L 212,269 L 213,270 L 214,270 L 216,272 L 216,273 L 217,274 L 213,278 L 212,278 L 207,283 L 207,284 L 205,286 L 205,288 L 204,289 L 204,295 L 205,296 L 205,298 L 207,300 L 207,301 L 210,304 L 210,305 L 212,307 L 213,307 L 215,309 L 217,309 L 217,306 L 215,304 L 215,303 L 213,301 L 213,300 L 212,299 L 212,297 L 211,296 L 211,290 L 212,289 L 212,288 L 219,281 L 220,281 L 221,280 L 222,280 L 224,282 L 224,286 L 223,287 L 223,303 L 224,304 L 227,304 L 228,303 L 228,282 L 229,281 L 231,281 L 235,285 L 235,286 L 239,290 L 239,291 L 240,292 L 240,296 L 239,297 L 239,299 L 238,300 L 238,301 L 237,302 L 237,303 L 233,307 L 233,309 L 235,309 L 236,308 L 237,308 L 242,303 L 242,302 L 244,300 L 244,299 L 245,298 L 245,297 L 246,296 L 246,288 L 245,287 L 245,286 L 243,284 L 243,283 L 236,276 L 235,276 L 233,274 L 233,273 L 234,272 L 234,271 L 235,270 L 236,270 L 237,269 L 238,269 L 240,267 L 241,267 L 248,260 L 248,257 L 249,256 L 248,255 L 248,251 L 247,250 L 247,249 L 246,248 L 246,247 L 242,243 L 242,242 L 241,241 L 241,240 L 243,238 L 247,238 L 248,237 L 253,237 L 254,236 L 257,236 L 258,235 L 260,235 L 261,234 L 263,234 L 264,233 L 265,233 L 266,232 L 267,232 L 269,230 L 270,230 L 272,228 L 273,228 L 277,224 L 277,221 L 276,220 L 276,219 L 272,215 L 271,215 L 270,214 L 268,214 L 267,213 L 265,213 L 264,212 L 257,212 L 256,211 L 238,211 L 235,214 L 235,217 L 237,219 L 260,219 L 262,221 L 262,224 L 261,225 L 260,225 L 259,226 L 258,226 L 257,225 L 256,225 L 255,226 L 253,226 L 252,227 L 251,227 L 250,228 L 249,228 L 248,229 L 247,229 L 246,230 L 245,230 L 244,231 L 242,231 L 241,232 L 238,232 L 237,233 L 235,233 L 234,234 L 231,234 L 230,233 L 230,232 L 229,231 L 229,210 L 230,209 L 230,208 L 232,206 L 233,206 L 234,205 L 237,205 L 238,204 L 242,204 L 243,205 L 250,205 L 251,204 L 253,204 L 254,205 L 257,205 L 258,206 L 262,206 L 263,205 L 264,205 L 264,204 L 265,203 L 266,203 L 267,202 L 268,203 L 270,203 L 272,205 L 276,205 L 277,204 L 279,204 L 280,203 L 281,203 L 282,202 L 284,202 L 285,201 L 288,201 L 289,200 L 292,200 L 293,199 L 296,199 L 298,197 L 299,197 L 299,196 L 300,195 L 300,193 L 296,193 L 295,192 L 291,192 L 290,191 L 286,191 L 285,190 L 284,190 L 283,189 L 282,189 L 281,188 L 280,188 L 279,187 L 278,187 L 277,186 L 276,186 L 274,184 L 273,184 L 271,182 L 270,182 L 267,179 L 266,179 L 261,174 L 260,174 L 257,171 L 257,170 L 256,170 L 253,167 L 252,167 L 251,166 L 250,166 L 249,167 L 248,167 L 246,169 L 246,170 L 242,174 L 242,175 L 240,177 L 240,178 L 238,180 L 237,180 L 236,181 L 234,181 L 232,179 L 232,178 L 233,177 L 233,176 L 234,175 L 234,174 L 235,173 L 235,172 L 236,171 L 236,166 L 235,165 L 235,164 L 234,163 L 234,162 L 231,159 Z" fill="black" /><path d="M 209,6 L 208,7 L 199,7 L 198,8 L 190,8 L 189,9 L 185,9 L 184,10 L 179,10 L 178,11 L 175,11 L 174,12 L 171,12 L 170,13 L 167,13 L 166,14 L 163,14 L 162,15 L 160,15 L 159,16 L 157,16 L 156,17 L 154,17 L 153,18 L 151,18 L 150,19 L 148,19 L 147,20 L 146,20 L 145,21 L 142,21 L 141,22 L 140,22 L 139,23 L 137,23 L 136,24 L 135,24 L 134,25 L 133,25 L 132,26 L 131,26 L 130,27 L 129,27 L 128,28 L 126,28 L 125,29 L 124,29 L 123,30 L 122,30 L 120,32 L 119,32 L 118,33 L 117,33 L 115,35 L 114,35 L 113,36 L 112,36 L 110,38 L 109,38 L 107,40 L 106,40 L 104,42 L 103,42 L 101,44 L 100,44 L 98,46 L 97,46 L 94,49 L 93,49 L 90,52 L 89,52 L 85,56 L 84,56 L 79,61 L 78,61 L 72,67 L 71,67 L 67,71 L 67,72 L 59,80 L 59,81 L 53,87 L 53,88 L 48,93 L 48,94 L 45,97 L 45,98 L 43,100 L 43,101 L 41,103 L 41,104 L 39,106 L 39,107 L 38,108 L 38,109 L 36,111 L 36,112 L 35,113 L 35,114 L 34,115 L 34,116 L 32,118 L 32,119 L 31,120 L 31,121 L 30,122 L 30,123 L 29,124 L 29,125 L 28,126 L 28,127 L 27,128 L 27,129 L 26,130 L 26,131 L 25,132 L 25,133 L 24,134 L 24,135 L 23,136 L 23,137 L 22,138 L 22,139 L 21,140 L 21,142 L 20,143 L 20,144 L 19,145 L 19,147 L 18,148 L 18,150 L 17,151 L 17,152 L 16,153 L 16,156 L 15,157 L 15,160 L 14,161 L 14,162 L 13,163 L 13,166 L 12,167 L 12,169 L 11,170 L 11,173 L 10,174 L 10,177 L 9,178 L 9,181 L 8,182 L 8,186 L 7,187 L 7,191 L 6,192 L 6,194 L 5,195 L 5,199 L 4,200 L 4,206 L 3,207 L 3,215 L 2,216 L 2,226 L 1,227 L 1,228 L 2,229 L 2,233 L 3,233 L 3,231 L 4,230 L 4,225 L 5,224 L 5,221 L 6,220 L 6,218 L 7,217 L 7,214 L 8,213 L 8,210 L 9,209 L 9,207 L 10,206 L 10,204 L 11,203 L 11,201 L 12,200 L 12,199 L 13,198 L 13,196 L 14,195 L 14,193 L 15,192 L 15,190 L 16,189 L 16,187 L 17,186 L 17,185 L 18,184 L 18,183 L 19,182 L 19,180 L 20,179 L 20,178 L 21,177 L 21,176 L 22,175 L 22,174 L 23,173 L 23,171 L 24,170 L 24,168 L 26,166 L 26,164 L 28,162 L 28,160 L 30,158 L 30,157 L 31,156 L 31,155 L 32,154 L 32,153 L 33,152 L 33,151 L 35,149 L 35,148 L 36,147 L 36,146 L 37,145 L 37,144 L 38,143 L 38,142 L 40,140 L 40,139 L 42,137 L 42,136 L 43,135 L 43,134 L 46,131 L 46,130 L 48,128 L 48,127 L 51,124 L 51,123 L 57,117 L 57,116 L 60,113 L 60,112 L 61,111 L 62,111 L 62,110 L 63,109 L 64,109 L 64,108 L 71,101 L 72,101 L 72,100 L 75,97 L 76,97 L 82,91 L 83,91 L 85,89 L 86,89 L 89,86 L 90,86 L 93,83 L 94,83 L 95,82 L 96,82 L 98,80 L 99,80 L 100,79 L 101,79 L 102,78 L 103,78 L 104,77 L 105,77 L 106,76 L 107,76 L 108,75 L 110,75 L 111,74 L 113,74 L 114,73 L 115,73 L 116,72 L 118,72 L 119,71 L 122,71 L 123,70 L 125,70 L 126,69 L 130,69 L 131,68 L 137,68 L 138,67 L 146,67 L 147,66 L 165,66 L 166,67 L 174,67 L 175,68 L 180,68 L 181,69 L 186,69 L 187,70 L 190,70 L 191,71 L 194,71 L 195,72 L 197,72 L 198,73 L 199,73 L 200,74 L 202,74 L 203,75 L 204,75 L 205,76 L 207,76 L 208,77 L 209,77 L 210,78 L 212,78 L 213,79 L 214,79 L 215,80 L 216,80 L 217,81 L 218,81 L 219,82 L 220,82 L 221,83 L 223,83 L 225,85 L 227,85 L 229,87 L 230,87 L 231,88 L 232,88 L 233,89 L 234,89 L 235,90 L 236,90 L 237,91 L 238,91 L 240,93 L 241,93 L 242,94 L 243,94 L 245,96 L 246,96 L 247,97 L 248,97 L 250,99 L 251,99 L 253,101 L 254,101 L 256,103 L 257,103 L 259,105 L 260,105 L 261,106 L 262,106 L 266,110 L 267,110 L 269,112 L 270,112 L 273,115 L 274,115 L 278,119 L 279,119 L 285,125 L 286,125 L 289,128 L 290,128 L 296,134 L 297,134 L 304,141 L 305,141 L 310,146 L 311,146 L 313,148 L 314,148 L 315,149 L 316,149 L 317,150 L 318,150 L 321,147 L 321,145 L 322,144 L 322,143 L 323,142 L 323,139 L 324,138 L 324,130 L 323,129 L 323,125 L 322,124 L 322,122 L 321,121 L 321,119 L 320,118 L 320,117 L 319,116 L 319,115 L 318,114 L 318,113 L 315,110 L 315,109 L 312,106 L 312,105 L 308,101 L 308,100 L 282,74 L 282,73 L 281,72 L 281,70 L 282,69 L 284,69 L 285,70 L 287,70 L 288,71 L 289,71 L 290,72 L 291,72 L 292,73 L 293,73 L 294,74 L 295,74 L 296,75 L 298,75 L 299,76 L 300,76 L 301,77 L 302,77 L 303,78 L 304,78 L 305,79 L 306,79 L 307,80 L 308,80 L 309,81 L 310,81 L 312,83 L 313,83 L 314,84 L 315,84 L 317,86 L 318,86 L 320,88 L 321,88 L 324,91 L 325,91 L 328,94 L 329,94 L 333,98 L 334,98 L 338,102 L 338,103 L 339,103 L 344,108 L 344,109 L 349,114 L 349,115 L 353,119 L 353,120 L 357,124 L 357,125 L 360,128 L 360,129 L 372,141 L 373,141 L 377,145 L 378,145 L 381,148 L 382,148 L 384,150 L 385,150 L 386,151 L 387,151 L 389,153 L 390,153 L 391,154 L 393,154 L 394,155 L 395,155 L 396,156 L 397,156 L 398,157 L 400,157 L 401,158 L 402,158 L 403,159 L 405,159 L 406,160 L 409,160 L 410,161 L 429,161 L 430,160 L 432,160 L 432,158 L 433,157 L 432,156 L 432,151 L 431,150 L 431,148 L 430,147 L 430,145 L 429,144 L 429,142 L 428,141 L 428,140 L 427,139 L 427,138 L 426,137 L 426,136 L 425,135 L 425,133 L 424,132 L 424,131 L 423,130 L 423,129 L 422,128 L 422,127 L 421,126 L 421,125 L 419,123 L 419,122 L 418,121 L 418,120 L 417,119 L 417,118 L 416,117 L 416,116 L 414,114 L 414,113 L 412,111 L 412,110 L 411,109 L 411,108 L 409,106 L 409,105 L 407,103 L 407,102 L 404,99 L 404,98 L 402,96 L 402,95 L 398,91 L 398,90 L 395,87 L 395,86 L 389,80 L 389,79 L 369,59 L 368,59 L 363,54 L 362,54 L 359,51 L 358,51 L 356,49 L 355,49 L 352,46 L 351,46 L 349,44 L 348,44 L 346,42 L 345,42 L 343,40 L 342,40 L 340,38 L 339,38 L 338,37 L 337,37 L 336,36 L 335,36 L 334,35 L 333,35 L 332,34 L 331,34 L 330,33 L 329,33 L 327,31 L 326,31 L 325,30 L 324,30 L 323,29 L 322,29 L 321,28 L 320,28 L 319,27 L 317,27 L 316,26 L 315,26 L 314,25 L 313,25 L 312,24 L 311,24 L 310,23 L 308,23 L 307,22 L 306,22 L 305,21 L 303,21 L 302,20 L 301,20 L 300,19 L 298,19 L 297,18 L 296,18 L 295,17 L 293,17 L 292,16 L 290,16 L 289,15 L 287,15 L 286,14 L 284,14 L 283,13 L 280,13 L 279,12 L 276,12 L 275,11 L 272,11 L 271,10 L 268,10 L 267,9 L 263,9 L 262,8 L 254,8 L 253,7 L 243,7 L 242,6 Z" fill="black" /></svg>