<svg
  viewBox="0 0 512 512"
  fill="none"
  xmlns="http://www.w3.org/2000/svg"
  className="w-24 h-24 text-primary"
  style={{
    '--icon-green': 'var(--tw-color-green, #22c55e)',
    '--icon-black': 'var(--tw-color-black, #000)',
    '--icon-red': 'var(--tw-color-red, #ef4444)',
  }}
>
  <path
    d="M256 50c-59.6 0-115.4 29.7-148.4 77.5-32.9 47.4-40.2 108.6-19.3 162.1a8 8 0 0014.8-6.2c-18.1-46.2-12-98.7 16.2-139.4C154.1 97.2 202.7 70 256 70s101.9 27.2 136.7 74c28.2 40.7 34.3 93.2 16.2 139.4a8 8 0 0014.8 6.2c20.9-53.5 13.6-114.7-19.3-162.1C371.4 79.7 315.6 50 256 50z"
    fill="var(--icon-green)"
  />
  <path
    d="M256 462c59.6 0 115.4-29.7 148.4-77.5 32.9-47.4 40.2-108.6 19.3-162.1a8 8 0 00-14.8 6.2c18.1 46.2 12 98.7-16.2 139.4C357.9 414.8 309.3 442 256 442s-101.9-27.2-136.7-74c-28.2-40.7-34.3-93.2-16.2-139.4a8 8 0 00-14.8-6.2c-20.9 53.5-13.6 114.7 19.3 162.1C140.6 432.3 196.4 462 256 462z"
    fill="var(--icon-black)"
  />
  <path
    d="M256 160c-8.8 0-16 7.2-16 16v16h-16c-8.8 0-16 7.2-16 16s7.2 16 16 16h16v16h-16c-8.8 0-16 7.2-16 16s7.2 16 16 16h16v16c0 8.8 7.2 16 16 16s16-7.2 16-16v-16h16c8.8 0 16-7.2 16-16s-7.2-16-16-16h-16v-16h16c8.8 0 16-7.2 16-16s-7.2-16-16-16h-16v-16c0-8.8-7.2-16-16-16z"
    fill="var(--icon-red)"
  />
</svg>
